<svg width="50" height="51" viewBox="0 0 50 51" fill="none" xmlns="http://www.w3.org/2000/svg">
<g filter="url(#filter0_d_309_126)">
<path d="M40.6584 7.60913H36.0639V4.77591C36.0639 3.80346 35.263 3 34.2936 3H32.1441C31.1748 3 30.3738 3.80346 30.3738 4.77591V7.5667H19.6679V4.77591C19.6679 3.80346 18.867 3 17.8977 3H15.7481C14.7788 3 13.9779 3.80346 13.9779 4.77591V7.5667H9.38337C6.93871 7.5667 5 9.55402 5 11.964V38.6027C5 41.0551 6.98101 43 9.38337 43H40.616C43.0606 43 44.9993 41.0127 44.9993 38.6027V11.964C45.0417 9.59653 43.0606 7.60913 40.6583 7.60913H40.6584ZM40.6584 40.548H9.38367C8.32994 40.548 7.48703 39.7024 7.48703 38.6453V17.8841H42.5131V38.6453C42.5554 39.7024 41.6701 40.548 40.6587 40.548H40.6584Z" fill="white"/>
<path d="M17.0969 21.7317H12.4604C11.8283 21.7317 11.3223 22.239 11.3223 22.8734V26.383C11.3223 27.0171 11.828 27.5247 12.4604 27.5247H17.0969C17.7291 27.5247 18.235 27.0174 18.235 26.383V22.8734C18.235 22.239 17.7293 21.7317 17.0969 21.7317Z" fill="white"/>
<path d="M27.3814 21.7317H22.7448C22.1127 21.7317 21.6067 22.239 21.6067 22.8734V26.383C21.6067 27.0171 22.1124 27.5247 22.7448 27.5247H27.3814C28.0135 27.5247 28.5195 27.0174 28.5195 26.383V22.8734C28.5195 22.239 28.0138 21.7317 27.3814 21.7317Z" fill="white"/>
<path d="M37.7078 21.7317H33.0712C32.4391 21.7317 31.9331 22.239 31.9331 22.8734V26.383C31.9331 27.0171 32.4388 27.5247 33.0712 27.5247H37.7078C38.3399 27.5247 38.8459 27.0174 38.8459 26.383V22.8734C38.8459 22.239 38.3402 21.7317 37.7078 21.7317Z" fill="white"/>
<path d="M17.0969 31.0341H12.4604C11.8283 31.0341 11.3223 31.5414 11.3223 32.1758V35.6853C11.3223 36.3195 11.828 36.8271 12.4604 36.8271H17.0969C17.7291 36.8271 18.235 36.3197 18.235 35.6853V32.1758C18.235 31.5414 17.7293 31.0341 17.0969 31.0341Z" fill="white"/>
<path d="M27.3814 31.0341H22.7448C22.1127 31.0341 21.6067 31.5414 21.6067 32.1758V35.6853C21.6067 36.3195 22.1124 36.8271 22.7448 36.8271H27.3814C28.0135 36.8271 28.5195 36.3197 28.5195 35.6853V32.1758C28.5195 31.5414 28.0138 31.0341 27.3814 31.0341Z" fill="white"/>
<path d="M37.7078 31.0341H33.0712C32.4391 31.0341 31.9331 31.5414 31.9331 32.1758V35.6853C31.9331 36.3195 32.4388 36.8271 33.0712 36.8271H37.7078C38.3399 36.8271 38.8459 36.3197 38.8459 35.6853V32.1758C38.8459 31.5414 38.3402 31.0341 37.7078 31.0341Z" fill="white"/>
</g>
<defs>
<filter id="filter0_d_309_126" x="0" y="0.5" width="50" height="50" filterUnits="userSpaceOnUse" color-interpolation-filters="sRGB">
<feFlood flood-opacity="0" result="BackgroundImageFix"/>
<feColorMatrix in="SourceAlpha" type="matrix" values="0 0 0 0 0 0 0 0 0 0 0 0 0 0 0 0 0 0 127 0" result="hardAlpha"/>
<feOffset dy="2.5"/>
<feGaussianBlur stdDeviation="2.5"/>
<feComposite in2="hardAlpha" operator="out"/>
<feColorMatrix type="matrix" values="0 0 0 0 0 0 0 0 0 0 0 0 0 0 0 0 0 0 0.25 0"/>
<feBlend mode="normal" in2="BackgroundImageFix" result="effect1_dropShadow_309_126"/>
<feBlend mode="normal" in="SourceGraphic" in2="effect1_dropShadow_309_126" result="shape"/>
</filter>
</defs>
</svg>
