<svg width="52" height="51" viewBox="0 0 52 51" fill="none" xmlns="http://www.w3.org/2000/svg">
<g filter="url(#filter0_d_309_140)">
<path d="M45.97 21.7207C45.8854 20.0366 45.5692 18.3722 45.0303 16.7744C44.0501 13.7627 42.3586 11.0317 40.0989 8.81252C37.2841 6.03194 33.937 4.23486 30.0577 3.4213C28.9784 3.19678 27.8819 3.06515 26.7801 3.02785C26.719 3.02171 26.6582 3.01241 26.598 3H25.4669C25.4008 3.01278 25.3341 3.02207 25.267 3.02785C20.3825 3.20876 15.7354 5.18092 12.2117 8.56831C9.54904 11.0963 7.64209 14.3151 6.70407 17.8648C6.42083 18.9117 6.22968 19.9814 6.13282 21.0617C6.09283 21.5051 6.06641 21.95 6.03213 22.3934C6.02511 22.4418 6.01437 22.4895 6 22.5362V23.4645C6.02071 23.6444 6.05213 23.8215 6.0607 24.0051C6.12563 25.4143 6.34351 26.8123 6.7105 28.1745C7.57218 31.4317 9.25368 34.4138 11.5947 36.8369C14.2782 39.6332 17.5037 41.4997 21.2711 42.4366C22.2905 42.6908 23.3296 42.858 24.3773 42.9364C24.5365 42.9486 24.6958 42.9579 24.855 42.9714C24.8987 42.9779 24.9419 42.9874 24.9842 43H27.0065C27.2278 42.9793 27.4485 42.9557 27.6698 42.9386C29.1849 42.8198 30.6808 42.5241 32.1271 42.0574C35.1166 41.0951 37.8385 39.4445 40.0738 37.2384C42.3091 35.0322 43.9953 32.3322 44.9967 29.3556C45.4183 28.1114 45.7093 26.8268 45.865 25.5224C45.9115 25.1261 45.9364 24.727 45.9693 24.3292C45.9761 24.2811 45.9857 24.2335 45.9979 24.1864V21.8521C45.9852 21.8091 45.9758 21.7652 45.97 21.7207ZM25.8668 41.097C15.8963 41.0099 7.92656 32.8952 7.9437 23.0111C7.9237 13.0934 15.9755 4.87586 26.1267 4.92513C36.153 4.97369 44.1748 13.1369 44.1213 23.1139C44.0677 33.0909 35.9338 41.1855 25.8668 41.097Z" fill="white" stroke="white"/>
<path d="M37.9639 24.0522C37.6982 26.8521 36.6071 29.2828 34.6592 31.3114C32.8654 33.1809 30.6811 34.3448 28.1297 34.8104C27.1636 34.9901 26.1784 35.0443 25.1985 34.9717C22.7449 34.7861 20.5392 33.9428 18.6133 32.4104C16.3511 30.6116 14.9159 28.2902 14.3082 25.4646C14.2089 25.0026 14.1518 24.5306 14.099 24.0601C14.084 23.9276 14.0973 23.7934 14.1381 23.6665C14.1788 23.5395 14.246 23.4227 14.3352 23.3236C14.4244 23.2245 14.5336 23.1455 14.6556 23.0918C14.7776 23.038 14.9096 23.0108 15.043 23.0118C15.2029 23.0118 15.3629 23.0118 15.5228 23.0118H26.0432C29.6635 23.0118 33.2843 23.0118 36.9056 23.0118C37.0366 23.0079 37.1675 23.0219 37.2948 23.0532C37.5049 23.1163 37.6865 23.2504 37.8086 23.4326C37.9307 23.6149 37.9855 23.8339 37.9639 24.0522Z" fill="white"/>
<path d="M33.6431 14.443C34.4386 14.4441 35.2075 14.7289 35.8118 15.2462C36.4161 15.7634 36.8161 16.4792 36.94 17.265C36.978 17.4787 36.9869 17.6965 36.9664 17.9126C36.9357 18.1507 36.8149 18.3679 36.629 18.5197C36.4431 18.6715 36.2061 18.7463 35.9667 18.7288C35.7277 18.7116 35.5036 18.6065 35.3375 18.4338C35.1715 18.261 35.0754 18.0329 35.0677 17.7934C35.0629 17.6282 35.0372 17.4644 34.9913 17.3057C34.8887 17.0102 34.6916 16.7567 34.4305 16.5844C34.1694 16.4122 33.8588 16.3307 33.5468 16.3525C33.2347 16.3744 32.9386 16.4984 32.7041 16.7054C32.4695 16.9124 32.3097 17.1908 32.2493 17.4977C32.2327 17.5876 32.223 17.6785 32.22 17.7698C32.2029 18.3254 31.7851 18.7381 31.246 18.7288C31.12 18.7265 30.9956 18.6992 30.8802 18.6484C30.7648 18.5977 30.6606 18.5245 30.5737 18.4332C30.4868 18.3418 30.4189 18.2341 30.374 18.1163C30.3291 17.9985 30.308 17.873 30.312 17.747C30.3148 17.1554 30.4781 16.5756 30.7847 16.0696C31.08 15.5746 31.4985 15.1645 31.9994 14.8794C32.5004 14.5943 33.0667 14.4439 33.6431 14.443Z" fill="white"/>
<path d="M18.8961 14.4422C19.6915 14.4453 20.4597 14.7325 21.062 15.252C21.6643 15.7716 22.0611 16.4893 22.1808 17.2757C22.2104 17.4672 22.2212 17.6611 22.213 17.8548C22.1968 18.0939 22.0897 18.3177 21.9138 18.4805C21.7379 18.6432 21.5065 18.7326 21.2668 18.7302C21.0273 18.7295 20.7969 18.6387 20.6213 18.4758C20.4458 18.3129 20.3379 18.09 20.3193 17.8512C20.3132 17.6976 20.2934 17.5449 20.26 17.3949C20.1704 17.0767 19.9728 16.7995 19.7011 16.6111C19.4294 16.4227 19.1007 16.3348 18.7712 16.3624C18.4417 16.39 18.1322 16.5315 17.8957 16.7625C17.6592 16.9935 17.5105 17.2997 17.4751 17.6284C17.468 17.6998 17.4658 17.7762 17.4594 17.8498C17.4434 18.0975 17.331 18.3291 17.1465 18.495C16.9619 18.661 16.7197 18.7482 16.4717 18.7379C16.2237 18.7277 15.9895 18.6208 15.8193 18.4401C15.649 18.2595 15.5562 18.0194 15.5607 17.7712C15.575 16.6159 16.0684 15.704 17.0024 15.0356C17.5539 14.6404 18.2177 14.4324 18.8961 14.4422Z" fill="white"/>
</g>
<defs>
<filter id="filter0_d_309_140" x="0.5" y="0" width="50.9978" height="51" filterUnits="userSpaceOnUse" color-interpolation-filters="sRGB">
<feFlood flood-opacity="0" result="BackgroundImageFix"/>
<feColorMatrix in="SourceAlpha" type="matrix" values="0 0 0 0 0 0 0 0 0 0 0 0 0 0 0 0 0 0 127 0" result="hardAlpha"/>
<feOffset dy="2.5"/>
<feGaussianBlur stdDeviation="2.5"/>
<feComposite in2="hardAlpha" operator="out"/>
<feColorMatrix type="matrix" values="0 0 0 0 0 0 0 0 0 0 0 0 0 0 0 0 0 0 0.25 0"/>
<feBlend mode="normal" in2="BackgroundImageFix" result="effect1_dropShadow_309_140"/>
<feBlend mode="normal" in="SourceGraphic" in2="effect1_dropShadow_309_140" result="shape"/>
</filter>
</defs>
</svg>
