<svg width="60" height="51" viewBox="0 0 60 51" fill="none" xmlns="http://www.w3.org/2000/svg">
<g filter="url(#filter0_d_306_189)">
<path d="M49.1639 11.7407H44.9052L44.3793 8.00416C44.1692 6.47822 43.3802 5.10969 42.1711 4.16262C40.9619 3.21556 39.4369 2.847 37.9124 3.05731L9.99375 6.95166C6.83891 7.37271 4.63075 10.3197 5.05137 13.4773L7.68025 32.9485C8.10091 35.843 10.5721 37.9478 13.4111 37.9478C13.6741 37.9478 13.937 37.9478 14.1996 37.8953L15.3039 37.7375C15.5669 40.6844 18.038 43 21.0348 43H49.2163C52.3711 43 55 40.4213 55 37.2111V17.5293C54.9476 14.3716 52.3711 11.7403 49.1639 11.7403L49.1639 11.7407ZM51.7928 17.5297V34.054L43.4858 24.5288C42.1189 22.95 39.595 22.95 38.2281 24.5288L31.0776 32.7386L28.5012 29.897C27.1867 28.4761 24.9261 28.4761 23.664 29.897L18.4063 35.6327V17.5297C18.4063 16.1087 19.563 14.8984 21.0352 14.8984H49.2167C50.636 14.8984 51.7928 16.1087 51.7928 17.5297ZM15.2515 17.5297V34.475L13.7793 34.6853C12.3596 34.8956 11.0452 33.8961 10.835 32.4226L8.15369 13.0039C7.94354 11.583 8.9422 10.2673 10.4143 10.057L38.333 6.2155H38.7012C39.9631 6.2155 41.1199 7.16256 41.2776 8.47819L41.7507 11.7937L21.0352 11.7933C17.8279 11.7408 15.2515 14.372 15.2515 17.5297V17.5297Z" fill="white"/>
<path d="M29.1845 21.8448C29.1845 23.5888 27.7722 25.0025 26.0297 25.0025C24.2872 25.0025 22.8749 23.5888 22.8749 21.8448C22.8749 20.1011 24.2872 18.6871 26.0297 18.6871C27.7722 18.6871 29.1845 20.1011 29.1845 21.8448Z" fill="white"/>
</g>
<defs>
<filter id="filter0_d_306_189" x="0" y="0.5" width="60" height="50" filterUnits="userSpaceOnUse" color-interpolation-filters="sRGB">
<feFlood flood-opacity="0" result="BackgroundImageFix"/>
<feColorMatrix in="SourceAlpha" type="matrix" values="0 0 0 0 0 0 0 0 0 0 0 0 0 0 0 0 0 0 127 0" result="hardAlpha"/>
<feOffset dy="2.5"/>
<feGaussianBlur stdDeviation="2.5"/>
<feComposite in2="hardAlpha" operator="out"/>
<feColorMatrix type="matrix" values="0 0 0 0 0 0 0 0 0 0 0 0 0 0 0 0 0 0 0.25 0"/>
<feBlend mode="normal" in2="BackgroundImageFix" result="effect1_dropShadow_306_189"/>
<feBlend mode="normal" in="SourceGraphic" in2="effect1_dropShadow_306_189" result="shape"/>
</filter>
</defs>
</svg>
